<?xml version="1.0" encoding="utf-8"?>
<!-- Generator: Adobe Illustrator 23.0.0, SVG Export Plug-In . SVG Version: 6.00 Build 0)  -->
<svg version="1.1" id="Layer_1" xmlns="http://www.w3.org/2000/svg" xmlns:xlink="http://www.w3.org/1999/xlink" x="0px" y="0px"
	 viewBox="0 0 1000 1000" style="enable-background:new 0 0 1000 1000;" xml:space="preserve">
<style type="text/css">
	.st0{fill:#3F51B5;}
	.st1{fill:#FFFFFF;}
</style>
<ellipse transform="matrix(0.7071 -0.7071 0.7071 0.7071 -207.1065 499.9999)" class="st0" cx="500" cy="500" rx="250" ry="250"/>
<g>
	<g>
		<path class="st1" d="M571.21,382.19c0,39.33-31.88,71.21-71.21,71.21c-39.33,0-71.21-31.88-71.21-71.21
			c0-39.33,31.88-71.21,71.21-71.21C539.33,310.98,571.21,342.86,571.21,382.19z"/>
	</g>
	<g>
		<path class="st1" d="M500,477.76L500,477.76c-72.97,0-132.12,59.15-132.12,132.12l0,0c0,19.15,15.52,34.67,34.67,34.67h194.89
			c19.15,0,34.67-15.52,34.67-34.67l0,0C632.12,536.91,572.97,477.76,500,477.76z"/>
	</g>
</g>
</svg>
